<svg width="96" height="96" xmlns="http://www.w3.org/2000/svg" xmlns:xlink="http://www.w3.org/1999/xlink" xml:space="preserve" overflow="hidden"><defs><clipPath id="clip0"><rect x="575" y="109" width="96" height="96"/></clipPath></defs><g clip-path="url(#clip0)" transform="translate(-575 -109)"><path d="M589 174 593 174 593 178 589 178 589 174ZM589 166 593 166 593 170 589 170 589 166ZM589 158 593 158 593 162 589 162 589 158ZM597 174 601 174 601 178 597 178 597 174ZM597 166 601 166 601 170 597 170 597 166ZM597 158 601 158 601 162 597 162 597 158ZM583 188 593 188 593 182 597 182 597 188 607 188 607 152 583 152 583 188Z"/><path d="M617 174 621 174 621 178 617 178 617 174ZM617 166 621 166 621 170 617 170 617 166ZM625 174 629 174 629 178 625 178 625 174ZM625 166 629 166 629 170 625 170 625 166ZM611 188 621 188 621 182 625 182 625 188 635 188 635 160 611 160 611 188Z"/><path d="M657 139 653 139 653 135 657 135 657 139ZM657 146 653 146 653 142 657 142 657 146ZM657 154 653 154 653 150 657 150 657 154ZM657 162 653 162 653 158 657 158 657 162ZM657 170 653 170 653 166 657 166 657 170ZM657 178 653 178 653 174 657 174 657 178ZM649 139 645 139 645 135 649 135 649 139ZM649 146 645 146 645 142 649 142 649 146ZM649 154 645 154 645 150 649 150 649 154ZM649 162 645 162 645 158 649 158 649 162ZM649 170 645 170 645 166 649 166 649 170ZM649 178 645 178 645 174 649 174 649 178ZM639 128 639 188 649 188 649 182 653 182 653 188 663 188 663 131 639 128Z"/><path d="M611 140 615 140 615 144 611 144 611 140ZM611 132 615 132 615 136 611 136 611 132ZM607 136 603 136 603 132 607 132 607 136ZM607 144 603 144 603 140 607 140 607 144ZM611 156 621 156 621 126 597 126 597 148 611 148 611 156Z"/></g></svg>