<svg width="96" height="96" xmlns="http://www.w3.org/2000/svg" xmlns:xlink="http://www.w3.org/1999/xlink" xml:space="preserve" overflow="hidden"><defs><clipPath id="clip0"><rect x="487" y="49" width="96" height="96"/></clipPath></defs><g clip-path="url(#clip0)" transform="translate(-487 -49)"><path d="M563 93C563 95.2 561.2 97 559 97 556.8 97 555 95.2 555 93L555 89 553 69 561 69 563 89 563 93ZM547 93C547 95.2 545.2 97 543 97 540.8 97 539 95.2 539 93L539 89 538 69 546 69 547 89 547 93ZM531 89 531 93C531 95.2 529.2 97 527 97 524.8 97 523 95.2 523 93L523 89 524 69 532 69 531 89ZM527 121 511 121 511 105 527 105 527 121ZM507 93 507 89 509 69 517 69 515 89 515 93C515 95.2 513.2 97 511 97 508.8 97 507 95.2 507 93ZM567 63 503 63 499 89 499 93C499 95.2 500.8 97 503 97L503 131 537 131 537 105 559 105 559 131 567 131 567 97C569.2 97 571 95.2 571 93L571 89 567 63Z"/></g></svg>