<svg width="96" height="96" xmlns="http://www.w3.org/2000/svg" xmlns:xlink="http://www.w3.org/1999/xlink" xml:space="preserve" overflow="hidden"><defs><clipPath id="clip0"><rect x="675" y="514" width="96" height="96"/></clipPath></defs><g clip-path="url(#clip0)" transform="translate(-675 -514)"><path d="M757.021 557.531C757.052 552.333 752.864 548.094 747.666 548.062 747.125 548.059 746.584 548.102 746.05 548.192L746.05 548.062C746.048 541.455 740.69 536.1 734.082 536.102 732.815 536.102 731.555 536.304 730.351 536.7 726.577 529.665 717.814 527.022 710.78 530.796 706.174 533.267 703.261 538.032 703.161 543.258 696.651 542.061 690.404 546.368 689.207 552.877 688.01 559.387 692.317 565.634 698.827 566.831 699.271 566.912 699.719 566.969 700.169 567L748.045 567C753.083 566.74 757.031 562.575 757.021 557.531ZM700.976 565 700.303 564.955C694.814 564.589 690.661 559.842 691.028 554.352 691.394 548.863 696.141 544.711 701.63 545.077 702.02 545.103 702.409 545.152 702.793 545.224L705.118 545.659 705.161 543.295C705.293 536.418 710.975 530.949 717.853 531.081 722.354 531.168 726.459 533.677 728.588 537.644L729.38 539.123 730.973 538.6C731.979 538.27 733.031 538.101 734.09 538.1 736.187 538.096 738.231 538.758 739.927 539.99 742.51 541.868 744.042 544.866 744.05 548.06L744.05 550.552 746.38 550.163C746.787 550.096 747.2 550.062 747.613 550.063 751.742 550.112 755.049 553.498 755 557.627 754.954 561.541 751.897 564.756 747.99 565Z"/><path d="M722.991 570.966C722.454 570.836 721.914 571.166 721.784 571.702L718.484 585.345 725.451 585.345 722.2 594.509C722.009 595.027 722.275 595.602 722.794 595.793 723.312 595.983 723.887 595.718 724.077 595.199 724.08 595.192 724.083 595.184 724.085 595.177L728.285 583.345 721.027 583.345 723.727 572.173C723.857 571.636 723.527 571.096 722.991 570.966Z"/><path d="M740.863 585.823C743.616 585.823 745.848 583.592 745.85 580.839 745.85 578.088 740.863 570.872 740.863 570.872 740.863 570.872 735.876 578.088 735.876 580.839 735.878 583.592 738.11 585.823 740.863 585.823ZM740.863 574.54C742.491 577.193 743.85 579.882 743.85 580.84 743.85 582.49 742.513 583.827 740.863 583.827 739.213 583.827 737.876 582.49 737.876 580.84 737.876 579.882 739.236 577.193 740.863 574.54Z"/><path d="M709.944 580.839C709.944 578.088 704.957 570.872 704.957 570.872 704.957 570.872 699.97 578.088 699.97 580.839 699.97 583.593 702.203 585.826 704.957 585.826 707.711 585.826 709.944 583.593 709.944 580.839ZM701.97 580.839C701.97 579.882 703.329 577.193 704.957 574.539 706.584 577.192 707.944 579.881 707.944 580.839 707.944 582.489 706.607 583.826 704.957 583.826 703.307 583.826 701.97 582.489 701.97 580.839Z"/></g></svg>