<svg width="96" height="96" xmlns="http://www.w3.org/2000/svg" xmlns:xlink="http://www.w3.org/1999/xlink" xml:space="preserve" overflow="hidden"><defs><clipPath id="clip0"><rect x="323" y="192" width="96" height="96"/></clipPath></defs><g clip-path="url(#clip0)" transform="translate(-323 -192)"><path d="M371 213.8 385.4 228.3 388.2 225.5 371 209 353.4 225.8 356.2 228.6Z"/><path d="M403 249.9 395 249.9 395 241.9 403 241.9 403 249.9ZM403 261.9 395 261.9 395 253.9 403 253.9 403 261.9ZM391 249.9 383 249.9 383 241.9 391 241.9 391 249.9ZM391 261.9 383 261.9 383 253.9 391 253.9 391 261.9ZM378 249.9 364 249.9 364 245.9 378 245.9 378 249.9ZM371 230.9C372.7 230.9 374 232.2 374 233.9 374 235.6 372.7 236.9 371 236.9 369.3 236.9 368 235.6 368 233.9 368 232.2 369.3 230.9 371 230.9ZM359 249.9 351 249.9 351 241.9 359 241.9 359 249.9ZM359 261.9 351 261.9 351 253.9 359 253.9 359 261.9ZM347 249.9 339 249.9 339 241.9 347 241.9 347 249.9ZM347 261.9 339 261.9 339 253.9 347 253.9 347 261.9ZM383 236.9 383 230.9 371 218.9 359 230.9 359 236.9 335 236.9 335 270.9 364 270.9 364 259.9C364 257.1 366 253.9 371 253.9 376 253.9 378 257.1 378 259.9L378 270.9 407 270.9 407 236.9 383 236.9Z"/></g></svg>