<svg width="96" height="96" xmlns="http://www.w3.org/2000/svg" xmlns:xlink="http://www.w3.org/1999/xlink" xml:space="preserve" overflow="hidden"><defs><clipPath id="clip0"><rect x="210" y="104" width="96" height="96"/></clipPath></defs><g clip-path="url(#clip0)" transform="translate(-210 -104)"><path d="M258 116C277.882 116 294 132.118 294 152 294 171.882 277.882 188 258 188 238.118 188 222 171.882 222 152 222.023 132.127 238.127 116.023 258 116M258 114C237.013 114 220 131.013 220 152 220 172.987 237.013 190 258 190 278.987 190 296 172.987 296 152 296.009 131.023 279.011 114.009 258.034 114 258.023 114 258.011 114 258 114Z"/><path d="M264 130 264 146 280 146 280 158 264 158 264 174 252 174 252 158 236 158 236 146 252 146 252 130ZM250 128 250 144 234 144 234 160 250 160 250 176 266 176 266 160 282 160 282 144 266 144 266 128Z"/></g></svg>