<svg width="96" height="96" xmlns="http://www.w3.org/2000/svg" xmlns:xlink="http://www.w3.org/1999/xlink" xml:space="preserve" overflow="hidden"><defs><clipPath id="clip0"><rect x="473" y="215" width="96" height="96"/></clipPath></defs><g clip-path="url(#clip0)" transform="translate(-473 -215)"><path d="M542 300.977 542 231 537 231 537 225 505 225 505 231 500 231 500 300.977 493 300.977 493 302.977 549 302.977 549 300.977ZM507 227 535 227 535 231 507 231ZM502 233 540 233 540 300.977 523 300.977 523 290 519 290 519 300.977 502 300.977Z"/><path d="M509 260 513 260 513 266 509 266Z"/><path d="M509 250 513 250 513 256 509 256Z"/><path d="M509 270 513 270 513 276 509 276Z"/><path d="M509 280 513 280 513 286 509 286Z"/><path d="M519 260 523 260 523 266 519 266Z"/><path d="M519 280 523 280 523 286 519 286Z"/><path d="M529 290 533 290 533 296 529 296Z"/><path d="M529 240 533 240 533 246 529 246Z"/><path d="M519 270 523 270 523 276 519 276Z"/><path d="M519 250 523 250 523 256 519 256Z"/><path d="M519 240 523 240 523 246 519 246Z"/><path d="M509 240 513 240 513 246 509 246Z"/><path d="M509 290 513 290 513 296 509 296Z"/><path d="M529 260 533 260 533 266 529 266Z"/><path d="M529 270 533 270 533 276 529 276Z"/><path d="M529 280 533 280 533 286 529 286Z"/><path d="M529 250 533 250 533 256 529 256Z"/></g></svg>