<svg width="96" height="96" xmlns="http://www.w3.org/2000/svg" xmlns:xlink="http://www.w3.org/1999/xlink" xml:space="preserve" overflow="hidden"><defs><clipPath id="clip0"><rect x="371" y="528" width="96" height="96"/></clipPath></defs><g clip-path="url(#clip0)" transform="translate(-371 -528)"><path d="M449.547 550.841C438.941 549.996 429.05 545.156 421.875 537.3 420.522 535.732 418.155 535.558 416.587 536.911 416.448 537.031 416.318 537.161 416.198 537.3 409.023 545.156 399.132 549.996 388.526 550.841 386.555 551.026 385.053 552.688 385.068 554.667L385.068 564.32C385.068 585.306 398.415 604.503 416.947 616.382 418.22 617.2 419.853 617.2 421.126 616.382 439.658 604.5 453.005 585.306 453.005 564.32L453.005 554.667C453.02 552.688 451.518 551.026 449.547 550.841ZM446.505 564.32C446.505 581.02 436.556 597.867 419.891 609.396L419.037 609.987 418.184 609.396C401.518 597.866 391.567 581.015 391.567 564.32L391.567 557.069 392.831 556.869C402.248 555.38 411.013 551.135 418.02 544.669L419.036 543.733 420.053 544.669C427.06 551.135 435.824 555.38 445.241 556.869L446.505 557.069Z"/><path d="M419.036 547.788C412.093 553.86 403.639 557.945 394.567 559.612L394.567 564.32C394.567 579.747 403.694 595.383 419.037 606.33 434.378 595.385 443.505 579.748 443.505 564.32L443.505 559.612C434.433 557.945 425.979 553.86 419.036 547.788ZM416.468 586.833 406.356 576.72 409.792 573.284 416.468 579.96 430.14 566.288 433.576 569.725Z"/></g></svg>