<svg width="96" height="96" xmlns="http://www.w3.org/2000/svg" xmlns:xlink="http://www.w3.org/1999/xlink" xml:space="preserve" overflow="hidden"><defs><clipPath id="clip0"><rect x="776" y="312" width="96" height="96"/></clipPath></defs><g clip-path="url(#clip0)" transform="translate(-776 -312)"><path d="M862 390 862 384.063 856 384.063 856 381.648 853.985 379.634 853.02 352.585 856 350.6 856 348.063 860.012 348.063 859.965 342.063 863 342.063 863 338.4 824.026 321.978 785 338.4 785 342.065 788.008 342.065 788.055 348.065 792 348.065 792 350.6 794.98 352.587 794.015 379.636 792 381.648 792 384.063 786.049 384.063 786.049 390 782.049 390 782.049 398 866 398 866 390ZM854 382.477 854 384.063 845 384.063 845 382.477 846.414 381.063 852.586 381.063ZM805 348.063 809 348.063 809 350.6 811.98 352.587 811.015 379.636 809 381.648 809 384.063 805 384.063 805 381.648 802.985 379.634 802.02 352.585 805 350.6ZM813.965 353.063 817.035 353.063 817.964 379.063 813.036 379.063ZM817.697 351.063 813.3 351.063 811 349.527 811 348.063 820 348.063 820 349.527ZM811 382.477 812.414 381.063 818.586 381.063 820 382.477 820 384.063 811 384.063ZM819.985 379.634 819.02 352.585 822 350.6 822 348.063 826 348.063 826 350.6 828.98 352.587 828.015 379.636 826 381.648 826 384.063 822 384.063 822 381.648ZM830.965 353.063 834.035 353.063 834.964 379.063 830.036 379.063ZM834.697 351.063 830.3 351.063 828 349.527 828 348.063 837 348.063 837 349.527ZM828 382.477 829.414 381.063 835.586 381.063 837 382.477 837 384.063 828 384.063ZM836.985 379.634 836.02 352.585 839 350.6 839 348.063 843 348.063 843 350.6 845.98 352.587 845.015 379.636 843 381.648 843 384.063 839 384.063 839 381.648ZM847.965 353.063 851.035 353.063 851.964 379.063 847.036 379.063ZM854 349.527 851.7 351.063 847.3 351.063 845 349.527 845 348.063 854 348.063ZM787 340.063 787 339.727 824.025 324.147 861 339.726 861 340.063 787 340.063ZM790.039 346.063 790.008 342.063 857.965 342.063 857.997 346.063 790.039 346.063ZM794 349.527 794 348.063 803 348.063 803 349.527 800.7 351.063 796.3 351.063ZM796.965 353.063 800.035 353.063 800.964 379.063 796.036 379.063ZM794 382.477 795.414 381.063 801.586 381.063 803 382.477 803 384.063 794 384.063ZM788.049 386.063 860 386.063 860 389.969 788.049 389.969ZM864 396 784.051 396 784.051 392 864 392Z"/></g></svg>