<svg width="96" height="96" xmlns="http://www.w3.org/2000/svg" xmlns:xlink="http://www.w3.org/1999/xlink" xml:space="preserve" overflow="hidden"><defs><clipPath id="clip0"><rect x="354" y="413" width="96" height="96"/></clipPath></defs><g clip-path="url(#clip0)" transform="translate(-354 -413)"><path d="M385.184 464.328C381.068 465.716 377.212 467.777 373.771 470.428 371.435 472.253 370.048 475.036 370 478L370 495.57 370.89 496.164C372.968 497.549 376.559 498.637 381 499.434L381 493 400 493 400 501.047C400.758 501.058 401.517 501.064 402.277 501.065 402.852 501.065 403.426 501.058 404 501.052L404 493 423 493 423 499.506C427.61 498.69 431.256 497.555 433.2 496.1L434 495.5 434 477.958C433.947 475.022 432.576 472.266 430.267 470.452 426.829 467.799 422.974 465.735 418.861 464.343L412.626 461.843C412.249 461.691 412.002 461.326 412 460.92L412 458.472C415.791 455.442 417.999 450.853 418 446L418 439 419 439C420.105 439 421 438.105 421 437 421 435.895 420.105 435 419 435L418 435C417.652 429.478 414.475 424.527 409.6 421.91L408 428.24C407.887 428.697 407.471 429.014 407 429L406.76 429C406.219 428.887 405.873 428.357 405.986 427.816 405.986 427.816 405.986 427.816 405.986 427.816 405.986 427.797 405.995 427.779 406 427.76L407.9 420.27C407.567 418.941 406.376 418.007 405.006 418L399.006 418C397.634 418.004 396.44 418.939 396.106 420.27L398.006 427.76C398.151 428.292 397.838 428.841 397.306 428.987L397.246 429 397.006 429C396.535 429.014 396.119 428.697 396.006 428.24L394.456 421.91C389.581 424.527 386.404 429.478 386.056 435L385.006 435C383.901 435 383.006 435.895 383.006 437 383.006 438.105 383.901 439 385.006 439L386.006 439 386.006 446C386.007 450.849 388.212 455.435 391.999 458.465L391.999 460.92C392.001 461.324 391.758 461.689 391.384 461.843ZM390 446 390 439 414 439 414 446C414 452.627 408.627 458 402 458 395.373 458 390 452.627 390 446ZM400 489 381.318 489 384.456 468.977 392.893 465.546C392.953 465.521 393.006 465.487 393.065 465.46L400.005 482ZM402 466C399.312 466.026 396.636 465.642 394.064 464.859 395.285 463.917 396 462.462 396 460.92L396 460.82C399.847 462.392 404.158 462.392 408.005 460.82L408.005 460.92C408.003 462.469 408.725 463.93 409.956 464.871 407.376 465.648 404.694 466.029 402 466ZM404 489 404 482 410.938 465.465C410.997 465.492 411.051 465.527 411.112 465.552L419.612 468.952 422.7 489Z"/></g></svg>