<svg width="96" height="96" xmlns="http://www.w3.org/2000/svg" xmlns:xlink="http://www.w3.org/1999/xlink" xml:space="preserve" overflow="hidden"><defs><clipPath id="clip0"><rect x="963" y="360" width="96" height="96"/></clipPath></defs><g clip-path="url(#clip0)" transform="translate(-963 -360)"><path d="M1039 412C1039 413.1 1038.1 414 1037 414L1031 414C1029.9 414 1029 413.1 1029 412L1029 410C1029 408.9 1029.9 408 1031 408L1037 408C1038.1 408 1039 408.9 1039 410L1039 412ZM987.3 402 993.1 388.2C993.4 387.5 994.1 387 994.9 387L1026.9 387C1027.7 387 1028.4 387.5 1028.7 388.2L1034.7 402 987.3 402ZM993 412C993 413.1 992.1 414 991 414L985 414C983.9 414 983 413.1 983 412L983 410C983 408.9 983.9 408 985 408L991 408C992.1 408 993 408.9 993 410L993 412ZM1039 402 1032.5 386.7C1031.6 384.4 1029.4 383 1027 383L1019 383 1019 381C1019 378.8 1017.2 377 1015 377L1007 377C1004.8 377 1003 378.8 1003 381L1003 383 995 383C992.6 383 990.4 384.4 989.5 386.7L983 402C979.7 402 977 404.7 977 408L977 424C977 426.2 978.8 428 981 428L983 428 983 435C983 437.2 984.8 439 987 439L989 439C991.2 439 993 437.2 993 435L993 428 1029 428 1029 435C1029 437.2 1030.8 439 1033 439L1035 439C1037.2 439 1039 437.2 1039 435L1039 428 1041 428C1043.2 428 1045 426.2 1045 424L1045 408C1045 404.7 1042.3 402 1039 402Z"/></g></svg>