<svg width="96" height="96" xmlns="http://www.w3.org/2000/svg" xmlns:xlink="http://www.w3.org/1999/xlink" xml:space="preserve" overflow="hidden"><defs><clipPath id="clip0"><rect x="592" y="312" width="96" height="96"/></clipPath></defs><g clip-path="url(#clip0)" transform="translate(-592 -312)"><path d="M675.973 355.339C673.648 355.339 672.517 357.517 669.8 358.964L665.977 358.965C665.873 356.251 665.342 353.57 664.404 351.021L665.55 350.549C666.52 350.866 667.513 351.103 668.521 351.259 668.817 351.26 669.109 351.203 669.383 351.09 670.891 350.47 671.346 349.158 670.618 347.389 670.075 346.069 669.243 345.393 668.229 345.393 667.853 345.399 667.482 345.479 667.136 345.628 665.937 346.121 665.683 347.376 664.802 348.694L663.633 349.175C662.479 346.664 660.932 344.353 659.051 342.328L661.759 339.619C664.715 338.71 667.064 339.459 668.713 337.81 670.521 336.001 670.387 333.828 668.266 331.706 667.406 330.707 666.183 330.094 664.868 330.001 663.833 330.036 662.856 330.49 662.163 331.26 660.518 332.904 661.259 335.245 660.361 338.189L657.636 340.915C655.605 339.037 653.289 337.494 650.773 336.344L651.262 335.155C652.581 334.274 653.835 334.019 654.328 332.82 654.949 331.312 654.336 330.066 652.568 329.338 652.088 329.128 651.572 329.012 651.048 328.999 650.054 328.989 649.17 329.627 648.867 330.574 648.372 331.778 649.092 332.844 649.407 334.408L648.926 335.577C646.381 334.647 643.705 334.123 640.997 334.024L640.996 330.194C642.443 327.462 644.633 326.331 644.633 323.999 644.633 321.441 643.002 319.999 640.002 319.999 637.002 319.999 635.37 321.441 635.37 323.999 635.37 326.324 637.549 327.456 638.996 330.173L638.997 334.025C636.265 334.126 633.566 334.66 631.001 335.607L630.508 334.409C630.823 332.845 631.544 331.778 631.049 330.574 630.745 329.627 629.861 328.989 628.867 328.999 628.344 329.012 627.828 329.128 627.348 329.338 625.579 330.066 624.967 331.312 625.587 332.82 626.08 334.019 627.334 334.273 628.653 335.154L629.156 336.379C626.666 337.527 624.373 339.06 622.361 340.923L619.651 338.214C618.741 335.258 619.49 332.909 617.841 331.259 617.148 330.49 616.171 330.035 615.135 330.001 613.821 330.094 612.598 330.707 611.738 331.706 609.617 333.828 609.482 336.001 611.291 337.81 612.935 339.454 615.276 338.713 618.22 339.611L620.946 342.336C619.062 344.368 617.513 346.687 616.358 349.206L615.113 348.694C614.232 347.376 613.978 346.121 612.779 345.628 612.433 345.479 612.062 345.399 611.686 345.393 610.672 345.393 609.84 346.069 609.297 347.389 608.57 349.158 609.024 350.47 610.533 351.09 610.806 351.203 611.099 351.26 611.394 351.259 612.402 351.103 613.396 350.865 614.365 350.549L615.589 351.053C614.657 353.596 614.131 356.269 614.029 358.976L610.227 358.976C607.494 357.53 606.362 355.339 604.03 355.339 601.472 355.339 600.03 356.97 600.03 359.97 600.03 362.97 601.472 364.602 604.03 364.602 606.356 364.602 607.487 362.423 610.203 360.976L614.028 360.976C614.125 363.698 614.652 366.387 615.589 368.945L614.365 369.448C613.396 369.132 612.402 368.895 611.394 368.739 611.099 368.737 610.806 368.795 610.533 368.908 609.024 369.528 608.57 370.84 609.297 372.608 609.84 373.929 610.672 374.605 611.686 374.605 612.062 374.599 612.433 374.518 612.779 374.369 613.978 373.876 614.232 372.622 615.114 371.303L616.358 370.792C617.508 373.302 619.05 375.614 620.926 377.64L618.246 380.321C615.29 381.231 612.94 380.482 611.291 382.131 609.482 383.94 609.617 386.113 611.738 388.234 612.598 389.233 613.821 389.847 615.135 389.94 616.171 389.905 617.148 389.451 617.841 388.681 619.485 387.037 618.745 384.697 619.643 381.753L622.339 379.055C624.357 380.926 626.657 382.467 629.156 383.619L628.652 384.843C627.334 385.724 626.08 385.979 625.587 387.178 624.967 388.686 625.579 389.932 627.348 390.659 627.828 390.87 628.344 390.985 628.867 390.999 629.861 391.008 630.745 390.37 631.049 389.424 631.544 388.22 630.823 387.153 630.508 385.589L631.001 384.391C633.569 385.339 636.272 385.873 639.007 385.974L639.008 389.745C637.561 392.478 635.37 393.61 635.37 395.942 635.37 398.5 637.002 399.942 640.002 399.942 643.002 399.942 644.633 398.5 644.633 395.942 644.633 393.616 642.455 392.485 641.008 389.769L641.007 385.974C643.712 385.874 646.384 385.35 648.926 384.421L649.407 385.589C649.092 387.153 648.371 388.22 648.867 389.424 649.17 390.37 650.054 391.008 651.048 390.999 651.572 390.985 652.088 390.87 652.568 390.659 654.336 389.932 654.949 388.686 654.328 387.177 653.835 385.979 652.581 385.724 651.263 384.843L650.773 383.654C653.304 382.497 655.634 380.942 657.673 379.048L660.353 381.727C661.263 384.683 660.514 387.032 662.162 388.681 662.856 389.451 663.833 389.905 664.868 389.939 666.183 389.847 667.406 389.233 668.266 388.234 670.387 386.113 670.521 383.94 668.713 382.131 667.068 380.486 664.727 381.227 661.783 380.329L659.086 377.633C660.951 375.617 662.486 373.318 663.634 370.823L664.802 371.303C665.683 372.622 665.937 373.876 667.136 374.369 667.482 374.518 667.853 374.598 668.229 374.605 669.243 374.605 670.075 373.929 670.618 372.608 671.346 370.84 670.891 369.528 669.383 368.908 669.109 368.795 668.817 368.737 668.521 368.739 667.513 368.895 666.52 369.132 665.55 369.448L664.404 368.977C665.35 366.406 665.881 363.702 665.978 360.965L669.777 360.964C672.51 362.411 673.641 364.602 675.973 364.602 678.531 364.602 679.973 362.97 679.973 359.97 679.973 356.97 678.531 355.339 675.973 355.339ZM667.247 348.46C667.395 348.091 667.616 347.757 667.897 347.478 668.002 347.429 668.114 347.4 668.229 347.393 668.324 347.393 668.554 347.628 668.768 348.15 669.131 349.031 668.939 349.11 668.622 349.24 668.59 349.254 668.555 349.26 668.521 349.259 668.162 349.212 667.809 349.126 667.469 349 667.332 348.957 667.185 348.911 667.03 348.865 667.107 348.725 667.179 348.589 667.247 348.46ZM662.901 335.187C663.028 333.819 663.11 333.141 663.577 332.674 663.901 332.288 664.366 332.046 664.869 332.001 665.645 332.117 666.352 332.515 666.852 333.12 667.426 333.609 667.819 334.276 667.968 335.015 667.979 335.179 668.015 335.679 667.298 336.396 666.831 336.863 666.153 336.944 664.786 337.071 664.146 337.13 663.42 337.198 662.626 337.346 662.774 336.552 662.842 335.826 662.901 335.187ZM650.716 331.335C650.854 330.999 650.927 330.999 651.048 330.999 651.31 331.013 651.568 331.078 651.807 331.188 652.688 331.551 652.609 331.742 652.479 332.059 652.199 332.341 651.865 332.562 651.497 332.709 651.367 332.778 651.232 332.849 651.092 332.926 651.046 332.773 651.001 332.627 650.957 332.487 650.799 332.123 650.717 331.731 650.716 331.335ZM637.37 323.999C637.37 323.3 637.37 321.999 640.002 321.999 642.633 321.999 642.633 323.3 642.633 323.999 642.633 324.659 642.212 325.197 641.334 326.254 640.924 326.748 640.458 327.309 640.002 327.974 639.545 327.309 639.08 326.748 638.669 326.254 637.792 325.197 637.37 324.659 637.37 323.999ZM627.437 332.059C627.306 331.742 627.227 331.551 628.109 331.188 628.347 331.077 628.605 331.013 628.868 330.999 628.988 330.999 629.061 330.999 629.199 331.335 629.198 331.731 629.117 332.123 628.958 332.487 628.915 332.627 628.869 332.773 628.823 332.926 628.683 332.849 628.548 332.778 628.419 332.709 628.05 332.562 627.716 332.341 627.437 332.059ZM612.705 336.396C612.211 335.901 611.291 334.981 613.152 333.12 613.652 332.515 614.359 332.117 615.136 332.001 615.638 332.046 616.102 332.288 616.427 332.674 616.894 333.141 616.976 333.819 617.103 335.187 617.162 335.826 617.229 336.552 617.378 337.346 616.584 337.198 615.858 337.13 615.218 337.071 613.851 336.944 613.172 336.862 612.705 336.396ZM612.446 349C612.106 349.126 611.754 349.213 611.394 349.259 611.36 349.26 611.325 349.254 611.293 349.24 611.081 349.153 610.983 349.066 610.972 349.031 610.935 348.726 610.996 348.418 611.147 348.15 611.362 347.628 611.592 347.393 611.686 347.393 611.801 347.4 611.914 347.429 612.018 347.478 612.299 347.757 612.521 348.092 612.668 348.46 612.737 348.589 612.808 348.725 612.885 348.865 612.73 348.911 612.583 348.957 612.446 349ZM606.285 361.303C605.228 362.18 604.691 362.602 604.03 362.602 603.331 362.602 602.03 362.602 602.03 359.97 602.03 357.339 603.331 357.339 604.03 357.339 604.691 357.339 605.228 357.76 606.285 358.638 606.779 359.048 607.34 359.514 608.006 359.97 607.34 360.427 606.779 360.893 606.285 361.303ZM612.668 371.538C612.521 371.906 612.299 372.24 612.018 372.52 611.914 372.569 611.801 372.597 611.686 372.605 611.592 372.605 611.362 372.37 611.147 371.848 610.996 371.58 610.935 371.271 610.972 370.966 610.983 370.932 611.081 370.845 611.293 370.757 611.325 370.744 611.36 370.737 611.395 370.739 611.754 370.785 612.107 370.872 612.446 370.998 612.583 371.041 612.73 371.087 612.885 371.133 612.808 371.273 612.737 371.408 612.668 371.538ZM617.103 384.754C616.976 386.121 616.894 386.8 616.427 387.267 616.102 387.653 615.638 387.895 615.135 387.94 614.359 387.824 613.652 387.425 613.152 386.82 611.291 384.959 612.211 384.039 612.705 383.545 613.172 383.078 613.851 382.996 615.218 382.869 615.858 382.81 616.584 382.743 617.378 382.595 617.229 383.388 617.162 384.114 617.103 384.754ZM629.199 388.663C629.061 388.999 628.988 388.999 628.867 388.999 628.605 388.984 628.347 388.92 628.109 388.809 627.227 388.447 627.306 388.255 627.437 387.938 627.716 387.657 628.05 387.436 628.419 387.289 628.548 387.22 628.683 387.148 628.823 387.072 628.869 387.224 628.915 387.371 628.958 387.51 629.117 387.874 629.198 388.267 629.199 388.663ZM642.633 395.942C642.633 396.641 642.633 397.942 640.002 397.942 637.37 397.942 637.37 396.641 637.37 395.942 637.37 395.281 637.792 394.744 638.669 393.687 639.08 393.193 639.546 392.632 640.002 391.966 640.458 392.632 640.924 393.193 641.334 393.687 642.212 394.744 642.633 395.281 642.633 395.942ZM652.479 387.938C652.609 388.255 652.688 388.447 651.807 388.81 651.568 388.92 651.31 388.984 651.048 388.999 650.927 388.999 650.854 388.999 650.716 388.663 650.717 388.267 650.799 387.874 650.957 387.51 651.001 387.371 651.046 387.224 651.092 387.072 651.232 387.148 651.367 387.22 651.497 387.289 651.865 387.436 652.199 387.657 652.479 387.938ZM640.003 383.999C626.748 383.999 616.003 373.254 616.003 359.999 616.003 346.744 626.748 335.999 640.003 335.999 653.258 335.999 664.003 346.744 664.003 359.999 663.988 373.248 653.251 383.984 640.003 383.999ZM667.298 383.545C668.015 384.261 667.979 384.761 667.968 384.926 667.819 385.664 667.426 386.332 666.852 386.82 666.352 387.425 665.645 387.824 664.868 387.939 664.366 387.895 663.901 387.653 663.577 387.267 663.11 386.8 663.028 386.121 662.901 384.754 662.842 384.114 662.774 383.388 662.626 382.595 663.42 382.743 664.146 382.81 664.786 382.869 666.153 382.996 666.831 383.078 667.298 383.545ZM668.521 370.739C668.555 370.737 668.59 370.744 668.622 370.757 668.939 370.888 669.131 370.967 668.768 371.848 668.554 372.37 668.324 372.605 668.229 372.605 668.114 372.598 668.002 372.569 667.897 372.52 667.616 372.24 667.395 371.906 667.247 371.538 667.179 371.408 667.107 371.273 667.031 371.133 667.185 371.087 667.332 371.041 667.469 370.998 667.809 370.872 668.162 370.785 668.521 370.739ZM675.973 362.602C675.313 362.602 674.776 362.18 673.719 361.303 673.224 360.893 672.664 360.427 671.998 359.97 672.663 359.514 673.224 359.048 673.719 358.638 674.776 357.76 675.313 357.339 675.973 357.339 676.672 357.339 677.973 357.339 677.973 359.97 677.973 362.602 676.672 362.602 675.973 362.602Z"/><path d="M640.003 356.282C637.95 356.282 636.286 357.946 636.286 359.999 636.286 362.052 637.95 363.716 640.003 363.716 642.056 363.716 643.72 362.052 643.72 359.999 643.72 359.013 643.328 358.068 642.631 357.37 641.935 356.672 640.989 356.281 640.003 356.282ZM641.217 361.213C640.547 361.883 639.459 361.883 638.789 361.213 638.119 360.542 638.119 359.455 638.789 358.785 639.46 358.114 640.547 358.114 641.217 358.785 641.539 359.107 641.72 359.543 641.72 359.999 641.721 360.454 641.54 360.892 641.217 361.213Z"/><path d="M650.516 366.795C648.463 366.795 646.799 368.459 646.799 370.512 646.799 372.565 648.463 374.229 650.516 374.229 652.569 374.229 654.233 372.565 654.233 370.512 654.233 369.526 653.841 368.581 653.145 367.884 652.448 367.185 651.502 366.794 650.516 366.795ZM651.73 371.726C651.06 372.396 649.973 372.396 649.302 371.726 648.632 371.056 648.632 369.968 649.302 369.298 649.973 368.627 651.06 368.627 651.73 369.298 652.401 369.96 652.408 371.04 651.746 371.71 651.741 371.716 651.736 371.721 651.73 371.726Z"/><path d="M629.49 345.769C627.437 345.769 625.773 347.433 625.773 349.486 625.773 351.539 627.437 353.203 629.49 353.203 631.543 353.203 633.207 351.538 633.207 349.486 633.207 348.5 632.815 347.554 632.118 346.857 631.422 346.159 630.476 345.767 629.49 345.769ZM630.704 350.7C630.033 351.37 628.946 351.37 628.276 350.7 627.605 350.029 627.605 348.942 628.276 348.271 628.946 347.601 630.034 347.601 630.704 348.272 631.026 348.594 631.207 349.03 631.207 349.486 631.208 349.941 631.027 350.378 630.704 350.7Z"/><path d="M629.49 366.795C627.437 366.795 625.773 368.459 625.773 370.512 625.773 372.565 627.437 374.229 629.49 374.229 631.543 374.229 633.207 372.565 633.207 370.512 633.207 369.526 632.815 368.581 632.118 367.884 631.422 367.185 630.476 366.794 629.49 366.795ZM630.704 371.726C630.033 372.396 628.946 372.396 628.276 371.726 627.605 371.055 627.605 369.968 628.276 369.298 628.946 368.628 630.034 368.628 630.704 369.298 631.026 369.62 631.207 370.057 631.207 370.512 631.208 370.968 631.027 371.405 630.704 371.726Z"/><path d="M650.516 345.769C648.463 345.769 646.799 347.433 646.799 349.486 646.799 351.538 648.463 353.203 650.516 353.203 652.569 353.203 654.233 351.539 654.233 349.486 654.233 348.5 653.841 347.554 653.145 346.857 652.448 346.159 651.502 345.767 650.516 345.769ZM651.73 350.7C651.06 351.37 649.973 351.37 649.302 350.7 648.632 350.029 648.632 348.942 649.302 348.271 649.973 347.601 651.06 347.601 651.73 348.271 652.401 348.933 652.408 350.013 651.746 350.684 651.741 350.689 651.735 350.694 651.73 350.7Z"/><path d="M640.003 344.955C641.371 344.955 642.481 343.845 642.481 342.477 642.481 341.108 641.372 339.999 640.003 339.999 638.634 339.999 637.525 341.108 637.525 342.477 637.525 343.134 637.786 343.764 638.251 344.229 638.715 344.694 639.346 344.956 640.003 344.955ZM639.665 342.139C639.852 341.952 640.154 341.952 640.341 342.139 640.528 342.325 640.528 342.628 640.341 342.815 640.154 343.001 639.852 343.001 639.665 342.815 639.479 342.628 639.479 342.326 639.665 342.139Z"/><path d="M659.277 358.247C658.309 357.279 656.74 357.279 655.773 358.247 654.805 359.214 654.805 360.783 655.773 361.751 656.74 362.719 658.309 362.719 659.277 361.751 659.277 361.751 659.277 361.751 659.277 361.751 660.245 360.789 660.25 359.225 659.288 358.257 659.284 358.254 659.281 358.25 659.277 358.247ZM657.863 360.337C657.676 360.523 657.374 360.523 657.187 360.337 657 360.15 657 359.848 657.187 359.661 657.373 359.474 657.676 359.474 657.863 359.661 658.049 359.848 658.049 360.15 657.863 360.337Z"/><path d="M640.003 375.043C638.634 375.043 637.525 376.152 637.525 377.521 637.525 378.889 638.634 379.999 640.003 379.999 641.371 379.999 642.481 378.889 642.481 377.521 642.481 376.864 642.22 376.233 641.755 375.769 641.291 375.303 640.66 375.042 640.003 375.043ZM640.341 377.859C640.154 378.045 639.852 378.045 639.665 377.859 639.479 377.672 639.479 377.37 639.665 377.183 639.849 376.994 640.152 376.991 640.341 377.176 640.529 377.36 640.533 377.663 640.348 377.852 640.346 377.854 640.343 377.856 640.341 377.859Z"/><path d="M622.481 357.521C621.112 357.521 620.003 358.63 620.003 359.999 620.003 361.367 621.112 362.477 622.481 362.477 623.849 362.477 624.959 361.367 624.959 359.999 624.959 359.342 624.698 358.711 624.233 358.247 623.769 357.781 623.138 357.52 622.481 357.521ZM622.819 360.337C622.632 360.523 622.33 360.523 622.143 360.337 621.957 360.15 621.957 359.848 622.143 359.661 622.327 359.472 622.63 359.469 622.819 359.653 623.008 359.838 623.011 360.14 622.826 360.329 622.824 360.332 622.821 360.334 622.819 360.337Z"/></g></svg>