<svg width="96" height="96" xmlns="http://www.w3.org/2000/svg" xmlns:xlink="http://www.w3.org/1999/xlink" xml:space="preserve" overflow="hidden"><defs><clipPath id="clip0"><rect x="675" y="317" width="96" height="96"/></clipPath></defs><g clip-path="url(#clip0)" transform="translate(-675 -317)"><path d="M724.996 333.629C726.279 331.921 727.633 330.832 727.633 328.999 727.633 326.441 726.002 324.999 723.002 324.999 720.002 324.999 718.37 326.441 718.37 328.999 718.37 330.826 719.717 331.914 720.996 333.613L720.997 337.079C718.512 337.254 716.062 337.762 713.713 338.589 714.047 337.446 714.453 336.556 714.049 335.574 713.429 334.065 712.117 333.611 710.348 334.338 708.579 335.066 707.967 336.312 708.587 337.82 708.989 338.797 709.897 339.147 710.933 339.72L710.939 339.735C708.684 340.819 706.583 342.2 704.693 343.841L702.25 341.399C701.949 339.284 702.137 337.556 700.841 336.259 699.033 334.451 696.859 334.585 694.738 336.706 692.617 338.828 692.482 341.001 694.291 342.81 695.583 344.101 697.304 343.919 699.409 344.216L701.864 346.669C700.202 348.579 698.806 350.705 697.715 352.989L697.678 352.974C697.106 351.939 696.756 351.03 695.779 350.628 694.271 350.008 693.025 350.62 692.297 352.389 691.57 354.158 692.024 355.47 693.533 356.09 694.515 356.494 695.406 356.088 696.549 355.754L696.575 355.765C695.76 358.092 695.259 360.517 695.084 362.976L691.661 362.977C689.953 361.694 688.863 360.339 687.031 360.339 684.473 360.339 683.031 361.97 683.031 364.97 683.031 367.97 684.473 369.602 687.031 369.602 688.857 369.602 689.946 368.256 691.644 366.977L695.081 366.976C695.253 369.451 695.755 371.892 696.575 374.233L696.549 374.243C695.406 373.909 694.515 373.504 693.533 373.908 692.024 374.528 691.57 375.84 692.297 377.608 693.025 379.377 694.271 379.99 695.779 379.369 696.756 378.967 697.106 378.059 697.678 377.023L697.714 377.008C698.802 379.284 700.192 381.403 701.845 383.308L699.432 385.722C697.317 386.023 695.588 385.835 694.291 387.131 692.482 388.94 692.617 391.113 694.738 393.234 696.859 395.356 699.033 395.49 700.841 393.681 702.133 392.389 701.951 390.668 702.247 388.563L704.672 386.137C706.567 387.787 708.675 389.174 710.939 390.263L710.933 390.278C709.897 390.851 708.989 391.2 708.587 392.177 707.967 393.686 708.579 394.932 710.348 395.659 712.117 396.387 713.428 395.932 714.049 394.424 714.453 393.442 714.047 392.551 713.713 391.408 716.066 392.237 718.519 392.745 721.008 392.92L721.008 396.311C719.725 398.019 718.37 399.109 718.37 400.942 718.37 403.5 720.002 404.942 723.002 404.942 726.002 404.942 727.633 403.5 727.633 400.942 727.633 399.115 726.287 398.026 725.008 396.328L725.008 392.919C727.457 392.746 729.873 392.25 732.192 391.442 731.86 392.569 731.467 393.452 731.867 394.424 732.487 395.932 733.798 396.387 735.567 395.659 737.336 394.932 737.949 393.686 737.328 392.177 736.929 391.207 736.031 390.856 735.005 390.29 737.296 389.197 739.427 387.797 741.341 386.131L743.754 388.542C744.054 390.656 743.867 392.385 745.162 393.681 746.971 395.49 749.145 395.356 751.266 393.234 753.387 391.113 753.521 388.94 751.713 387.131 750.421 385.839 748.699 386.021 746.594 385.725L744.168 383.3C745.803 381.415 747.181 379.32 748.263 377.071 748.82 378.087 749.174 378.974 750.136 379.369 751.645 379.99 752.891 379.378 753.618 377.608 754.346 375.84 753.891 374.528 752.383 373.908 751.421 373.512 750.545 373.893 749.435 374.223 750.253 371.881 750.755 369.44 750.926 366.965L754.343 366.964C756.051 368.247 757.141 369.602 758.973 369.602 761.531 369.602 762.973 367.97 762.973 364.97 762.973 361.97 761.531 360.339 758.973 360.339 757.147 360.339 756.058 361.685 754.359 362.964L750.921 362.965C750.746 360.513 750.246 358.095 749.435 355.775 750.545 356.105 751.421 356.486 752.383 356.09 753.891 355.47 754.346 354.158 753.618 352.389 752.891 350.62 751.645 350.008 750.136 350.628 749.174 351.024 748.82 351.911 748.263 352.926 747.173 350.662 745.784 348.554 744.134 346.659L746.573 344.219C748.688 343.918 750.417 344.106 751.713 342.81 753.521 341.001 753.387 338.828 751.266 336.706 749.145 334.585 746.971 334.451 745.162 336.259 743.871 337.551 744.053 339.273 743.756 341.379L741.303 343.833C739.398 342.181 737.28 340.794 735.005 339.707 736.031 339.142 736.929 338.79 737.328 337.82 737.949 336.312 737.336 335.066 735.567 334.338 733.799 333.611 732.487 334.065 731.867 335.574 731.467 336.546 731.86 337.429 732.192 338.555 729.869 337.747 727.45 337.25 724.997 337.078ZM706.445 366.839C705.429 367.855 703.781 367.855 702.765 366.839 701.749 365.822 701.749 364.175 702.765 363.159 703.781 362.143 705.429 362.143 706.445 363.159 707.461 364.175 707.461 365.822 706.445 366.838 706.445 366.839 706.445 366.839 706.445 366.839ZM714.724 378.797C713.2 380.322 710.729 380.322 709.204 378.797 707.68 377.273 707.68 374.802 709.204 373.278 710.728 371.754 713.2 371.754 714.724 373.278 714.724 373.278 714.724 373.278 714.724 373.278 716.248 374.802 716.248 377.273 714.724 378.797ZM714.724 356.72C713.2 358.244 710.728 358.244 709.204 356.72 707.68 355.196 707.68 352.724 709.204 351.2 710.728 349.676 713.2 349.676 714.724 351.2 716.248 352.724 716.248 355.195 714.724 356.72ZM724.843 385.237C723.827 386.253 722.179 386.253 721.163 385.237 720.147 384.221 720.147 382.573 721.163 381.557 722.179 380.541 723.827 380.541 724.843 381.557 725.859 382.573 725.859 384.221 724.843 385.237ZM739.561 363.159C740.577 362.143 742.225 362.143 743.241 363.159 744.257 364.175 744.257 365.823 743.241 366.839 742.225 367.855 740.577 367.855 739.561 366.839 738.545 365.823 738.545 364.175 739.561 363.159ZM731.282 351.2C732.806 349.676 735.278 349.676 736.802 351.2 738.326 352.724 738.326 355.196 736.802 356.72 735.277 358.244 732.806 358.244 731.282 356.72 729.758 355.196 729.758 352.725 731.282 351.201 731.282 351.201 731.282 351.2 731.282 351.2ZM731.282 373.278C732.806 371.754 735.277 371.754 736.802 373.278 738.326 374.802 738.326 377.273 736.802 378.797 735.277 380.321 732.806 380.321 731.282 378.797 729.758 377.273 729.758 374.802 731.282 373.278 731.282 373.278 731.282 373.278 731.282 373.278ZM725.763 367.758C724.238 369.283 721.767 369.283 720.243 367.758 718.719 366.234 718.719 363.763 720.243 362.239 721.767 360.715 724.238 360.715 725.763 362.239 727.287 363.763 727.287 366.234 725.763 367.758 725.763 367.758 725.763 367.758 725.763 367.758ZM724.843 348.44C723.827 349.457 722.179 349.457 721.163 348.44 720.147 347.424 720.147 345.777 721.163 344.761 722.179 343.745 723.827 343.745 724.843 344.761 725.859 345.777 725.859 347.424 724.843 348.44 724.843 348.44 724.843 348.44 724.843 348.44Z"/></g></svg>