<svg width="96" height="96" xmlns="http://www.w3.org/2000/svg" xmlns:xlink="http://www.w3.org/1999/xlink" xml:space="preserve" overflow="hidden"><defs><clipPath id="clip0"><rect x="354" y="307" width="96" height="96"/></clipPath></defs><g clip-path="url(#clip0)" transform="translate(-354 -307)"><path d="M397 362.3C396.7 362.3 396.3 362.3 396 362.4 389.6 364.1 386.4 366.8 386 368.6 385.3 372.6 397.2 373 395.5 377.2 394.3 380.2 392.7 381.4 395.2 383.2 399.6 386.3 408.6 381 413.8 381.8 419.4 382.7 412.4 386.1 421.6 387 433.2 388.1 441.5 383.4 439.1 380.8 436.9 378.4 430.4 379.6 433.3 376.4 436.1 373.3 444.4 375.2 446.2 371 448.4 365.7 429.3 367.7 431.1 364.6 432 363.2 441.5 360.9 435.8 358 428.3 354.2 421.2 359.5 414.1 356.1 415.1 354.6 415.9 353 416.5 351.3 419.9 342.2 417.4 333.2 410.9 330.7 410.8 330.7 410.7 330.6 410.6 330.6L410.5 330.6C410.1 330.5 409.7 330.4 409.3 330.3L370.7 320.5C370.6 320.5 370.6 320.5 370.5 320.5L370.5 320.5C367.8 320 365.1 320.7 363 322.4 360.4 324.4 358.4 327.1 357.4 330.1 356.2 333.1 355.9 336.5 356.6 339.6 357.1 342.6 359.1 345.1 361.9 346.3L397 362.3ZM411 349.2C410.3 351.2 409.2 353 407.8 354.6L397.8 351.6C397.7 349.2 398 346.8 398.9 344.6 400.9 339.2 404.8 336.1 407.7 336.1 407.9 336.1 408 336.1 408.2 336.1L409 336.3C411.8 337.5 413.3 343 411 349.2ZM376.4 337.1C377.5 334.3 377.8 331.3 377.4 328.3L399 333.8C396.4 336.2 394.4 339.2 393.2 342.5 392.3 344.8 391.8 347.3 391.7 349.8L371.8 343.9C373.9 342 375.4 339.7 376.4 337.1ZM363.1 332.1C363.8 330.1 365 328.4 366.6 327.1 367.3 326.6 368.1 326.3 368.9 326.2 369 326.2 369.1 326.2 369.2 326.2L369.6 326.3C370.7 326.7 371.2 328.2 371.3 328.9 371.7 330.9 371.5 333.1 370.7 335 369.2 339.1 366 341.5 364.2 340.8 363.1 340.4 362.6 338.9 362.5 338.2 362.1 336.2 362.3 334.1 363.1 332.1L363.1 332.1Z"/><path d="M384.7 377C382.3 377 380.4 378.2 380.4 379.7 380.4 381.2 382.3 382.4 384.7 382.4 387.1 382.4 389 381.2 389 379.7 389 378.2 387.1 377 384.7 377Z"/><path d="M412.8 387.2C411.2 387.2 409.9 388 409.9 389.1 409.9 390.2 411.2 391 412.8 391 414.4 391 415.7 390.2 415.7 389.1 415.7 388 414.5 387.2 412.8 387.2Z"/><path d="M444.5 377.4C442.9 377.4 441.6 378.2 441.6 379.3 441.6 380.4 442.9 381.2 444.5 381.2 446.1 381.2 447.4 380.4 447.4 379.3 447.4 378.2 446.2 377.4 444.5 377.4Z"/></g></svg>