<svg width="96" height="96" xmlns="http://www.w3.org/2000/svg" xmlns:xlink="http://www.w3.org/1999/xlink" xml:space="preserve" overflow="hidden"><defs><clipPath id="clip0"><rect x="227" y="288" width="96" height="96"/></clipPath></defs><g clip-path="url(#clip0)" transform="translate(-227 -288)"><path d="M308.2 359.161C307.608 359.045 307.027 358.878 306.464 358.661 306.46 358.658 306.46 358.652 306.464 358.648 306.464 358.648 306.464 358.648 306.464 358.648 306.579 358.464 306.713 358.292 306.864 358.136 307.9 357 310.138 356.644 312.3 356.3 315.31 355.816 318.723 355.269 319.9 352.409 320.271 351.618 320.234 350.696 319.8 349.938 318.559 347.824 314.241 347.305 310.065 346.803 308.373 346.66 306.697 346.373 305.054 345.945 305.049 345.943 305.047 345.937 305.049 345.932 305.05 345.93 305.052 345.928 305.054 345.927 305.477 345.657 306.227 345.288 306.815 345 309.087 343.886 311.437 342.732 311.451 340.88 311.462 339.298 309.691 338.396 309.109 338.1 305.03 336.022 300.464 336.428 296.046 336.821 292.104 337.173 288.376 337.485 285.205 336.09 286.13 334.693 286.89 333.195 287.472 331.624 288.854 328.122 289.191 324.295 288.442 320.606 287.63 317.106 285.698 314.633 283.001 313.627 282.967 313.614 282.931 313.609 282.901 313.597L282.901 313.597 282.818 313.576C282.455 313.452 282.082 313.357 281.704 313.293L243.068 303.483C243.008 303.468 242.818 303.427 242.818 303.427 238.818 302.654 234.147 306.194 232.052 311.806 231 314.473 230.745 317.388 231.317 320.197 231.707 322.577 233.275 324.599 235.483 325.569L235.483 325.569 269.739 341.129C269.752 341.135 269.751 341.143 269.739 341.148 259.814 344.226 258.069 347.953 257.796 349.498 257.309 352.249 260.477 353.571 263.273 354.737 266.427 356.053 267.762 356.817 267.335 357.863 267.081 358.484 266.802 359.043 266.556 359.535 265.656 361.342 264.722 363.209 267.436 365.106 270.388 367.169 274.792 366.056 279.05 364.98 281.728 364.303 284.498 363.608 286.422 363.894 288.067 364.144 288.078 364.414 288.107 365.139 288.192 367.29 289.236 368.626 294.317 369.087 295.466 369.187 296.593 369.24 297.691 369.24 305.449 369.24 311.676 366.79 313.034 364.075 313.552 363.13 313.401 361.958 312.66 361.175 311.548 359.95 309.69 359.513 308.2 359.161ZM286.49 321.055C287.15 324.362 286.837 327.789 285.59 330.922 284.989 332.537 284.178 334.065 283.178 335.468L268.457 331.632C268.473 329.362 268.893 327.112 269.7 324.99 272.055 318.677 277.016 314.582 281.2 315.227L282.325 315.512C284.362 316.286 285.839 318.251 286.49 321.055ZM241.683 324.655C241.883 324.531 242.078 324.425 242.272 324.283 244.544 322.535 246.262 320.166 247.215 317.462 248.266 314.795 248.522 311.879 247.95 309.07 247.749 308.181 247.419 307.327 246.971 306.534L276.56 314.047C273 315.659 269.66 319.368 267.828 324.291 267.003 326.474 266.542 328.779 266.464 331.112ZM233.257 319.738C232.774 317.312 233.004 314.798 233.919 312.5 235.502 308.259 238.813 305.308 241.679 305.308 242.137 305.306 242.592 305.386 243.022 305.544 244.625 306.279 245.746 307.777 246 309.523 246.483 311.949 246.254 314.464 245.339 316.763 244.524 319.098 243.05 321.147 241.095 322.663 239.759 323.816 237.93 324.213 236.236 323.717 234.632 322.982 233.511 321.484 233.257 319.738ZM244.546 327.468 266.533 333.2C266.593 333.911 266.701 334.617 266.857 335.313 267.071 336.257 267.393 337.173 267.816 338.044 267.823 338.057 267.816 338.062 267.804 338.056L244.54 327.487C244.482 327.46 244.485 327.452 244.546 327.468ZM311.236 363.176C310.303 365.042 303.905 367.949 294.487 367.091 290.16 366.698 290.127 365.863 290.095 365.056 290.042 363.717 289.736 362.371 286.711 361.913 284.388 361.561 281.552 362.277 278.55 363.036 274.727 364.003 270.773 365 268.572 363.463 267.272 362.555 267.414 362.271 268.335 360.425 268.598 359.9 268.895 359.306 269.176 358.615 270.426 355.554 266.876 354.075 264.033 352.887 261.933 352.01 259.547 351.017 259.755 349.842 259.833 349.401 260.864 345.448 272.899 342.319L272.899 342.319C273.239 342.233 273.509 341.974 273.608 341.638 273.737 341.143 273.486 340.627 273.016 340.424L272.291 340.095C270.434 338.929 269.166 337.024 268.806 334.861 268.721 334.495 268.651 334.12 268.597 333.739L284 337.75C287.737 339.556 292.046 339.182 296.215 338.811 300.35 338.441 304.627 338.061 308.193 339.878 309.233 340.408 309.443 340.789 309.443 340.862 309.438 341.479 306.887 342.73 305.926 343.202 304.362 343.97 303.457 344.436 303.065 345.083 302.743 345.56 302.697 346.172 302.944 346.692 303.57 347.978 305.733 348.292 309.821 348.785 312.811 349.146 317.33 349.685 318.069 350.947 318.116 351.026 318.224 351.212 318.046 351.647 317.297 353.47 314.715 353.884 311.982 354.322 309.482 354.722 306.895 355.139 305.382 356.774 304.657 357.379 304.305 358.323 304.457 359.255 304.815 360.423 306.167 360.74 307.733 361.109 309.017 361.409 310.473 361.754 311.157 362.509 311.351 362.678 311.385 362.966 311.236 363.176Z"/><path d="M257.458 358.094C255.101 358.094 253.19 359.284 253.19 360.753 253.19 362.222 255.101 363.413 257.458 363.413 259.815 363.413 261.725 362.222 261.725 360.753 261.725 359.284 259.815 358.094 257.458 358.094ZM257.458 361.413C256.279 361.413 255.252 360.986 255.252 360.753 255.252 360.52 256.278 360.094 257.458 360.094 258.638 360.094 259.664 360.544 259.664 360.753 259.664 360.962 258.637 361.413 257.458 361.413Z"/><path d="M285.583 368.24C283.961 368.24 282.647 369.081 282.647 370.12 282.647 371.159 283.961 372 285.583 372 287.205 372 288.518 371.158 288.518 370.12 288.518 369.082 287.2 368.24 285.583 368.24Z"/><path d="M317.267 358.444C315.646 358.444 314.332 359.286 314.332 360.324 314.332 361.362 315.646 362.205 317.267 362.205 318.888 362.205 320.203 361.363 320.203 360.324 320.203 359.285 318.888 358.444 317.267 358.444Z"/></g></svg>