<svg width="96" height="96" xmlns="http://www.w3.org/2000/svg" xmlns:xlink="http://www.w3.org/1999/xlink" xml:space="preserve" overflow="hidden"><defs><clipPath id="clip0"><rect x="470" y="109" width="96" height="96"/></clipPath></defs><g clip-path="url(#clip0)" transform="translate(-470 -109)"><path d="M529 130.867 529 157 518 157 518 126 492 126 492 149 481 149 481 188 555 188 555 134.117ZM494 128 516 128 516 157 507 157 507 149 494 149ZM505 186 496 186 496 180 492 180 492 186 483 186 483 151 505 151 505 186ZM529 186 520 186 520 180 516 180 516 186 507 186 507 159 529 159ZM553 186 544 186 544 180 540 180 540 186 531 186 531 133.133 553 135.883Z"/><path d="M512 172.018 516 172.018 516 176.019 512 176.019Z"/><path d="M520 172.018 524 172.018 524 176.019 520 176.019Z"/><path d="M512 164 516 164 516 168.001 512 168.001Z"/><path d="M520 164 524 164 524 168.001 520 168.001Z"/><path d="M499 141.018 503 141.018 503 145.019 499 145.019Z"/><path d="M507 141.018 511 141.018 511 145.019 507 145.019Z"/><path d="M499 133 503 133 503 137.001 499 137.001Z"/><path d="M507 133 511 133 511 137.001 507 137.001Z"/><path d="M488.001 172.018 492.001 172.018 492.001 176.019 488.001 176.019Z"/><path d="M496.001 172.018 500.001 172.018 500.001 176.019 496.001 176.019Z"/><path d="M488.001 164 492.001 164 492.001 168.001 488.001 168.001Z"/><path d="M496.001 164 500.001 164 500.001 168.001 496.001 168.001Z"/><path d="M488.001 156 492.001 156 492.001 160.001 488.001 160.001Z"/><path d="M496.001 156 500.001 156 500.001 160.001 496.001 160.001Z"/><path d="M536 172.018 540 172.018 540 176.019 536 176.019Z"/><path d="M544 172.018 548 172.018 548 176.019 544 176.019Z"/><path d="M536 164 540 164 540 168.001 536 168.001Z"/><path d="M544 164 548 164 548 168.001 544 168.001Z"/><path d="M536 156 540 156 540 160.001 536 160.001Z"/><path d="M544 156 548 156 548 160.001 544 160.001Z"/><path d="M536 148.018 540 148.018 540 152.019 536 152.019Z"/><path d="M544 148.018 548 148.018 548 152.019 544 152.019Z"/><path d="M536 140 540 140 540 144.001 536 144.001Z"/><path d="M544 140 548 140 548 144.001 544 144.001Z"/></g></svg>