<svg width="96" height="96" xmlns="http://www.w3.org/2000/svg" xmlns:xlink="http://www.w3.org/1999/xlink" xml:space="preserve" overflow="hidden"><defs><clipPath id="clip0"><rect x="396" y="38" width="96" height="96"/></clipPath></defs><g clip-path="url(#clip0)" transform="translate(-396 -38)"><path d="M473.764 52 414.236 52 408.036 74.737 408 81C408.003 83.5402 409.605 85.8033 412 86.65L412 120 476 120 476 86.65C478.395 85.8033 479.997 83.5402 480 81L480 75ZM452 74.91 450.1 54 459.2 54 464 75.112 464 79.1C463.997 82.3571 461.357 84.9967 458.1 85L457.9 85C454.643 84.9967 452.003 82.3571 452 79.1L452 75ZM450 79.1C449.997 82.3571 447.357 84.9967 444.1 85L443.9 85C440.643 84.9967 438.003 82.3571 438 79.1L438 75.047 439.913 54 448.087 54 450 75ZM437.905 54 436 75 436 79.1C435.997 82.3571 433.357 84.9967 430.1 85L429.9 85C426.643 84.9967 424.003 82.3571 424 79.1L424 75.112 428.8 54ZM422 75 422 79.1C421.997 82.3571 419.357 84.9967 416.1 85L414 85C411.791 85 410 83.2091 410 81L410 75.134 415.764 54 426.747 54 422.025 74.778ZM448 118 448 95 465 95 465 118ZM474 118 467 118 467 93 446 93 446 118 414 118 414 87 416.1 87C418.967 86.998 421.608 85.443 423 82.937 424.392 85.443 427.033 86.998 429.9 87L430.1 87C432.967 86.998 435.608 85.443 437 82.937 438.392 85.443 441.033 86.998 443.9 87L444.1 87C446.967 86.998 449.608 85.443 451 82.937 452.392 85.443 455.033 86.998 457.9 87L458.1 87C460.967 86.998 463.608 85.443 465 82.937 466.392 85.443 469.033 86.998 471.9 87L474 87ZM478 81C478 83.2091 476.209 85 474 85L471.9 85C468.643 84.9967 466.003 82.3571 466 79.1L466 75 461.253 54 472.236 54 478 75.134Z"/><path d="M421 110 438 110 438 93 421 93ZM423 95 436 95 436 108 423 108Z"/></g></svg>