<svg width="96" height="96" xmlns="http://www.w3.org/2000/svg" xmlns:xlink="http://www.w3.org/1999/xlink" xml:space="preserve" overflow="hidden"><defs><clipPath id="clip0"><rect x="800" y="477" width="96" height="96"/></clipPath></defs><g clip-path="url(#clip0)" transform="translate(-800 -477)"><path d="M882.1 520.5C882.132 515.286 877.932 511.033 872.718 511 872.176 510.997 871.635 511.04 871.1 511.13L871.1 511C871.099 504.373 865.725 499.001 859.098 499.002 857.828 499.003 856.566 499.204 855.36 499.6 851.581 492.546 842.799 489.891 835.745 493.671 831.119 496.149 828.195 500.934 828.1 506.18 821.585 504.965 815.319 509.262 814.104 515.778 812.889 522.293 817.186 528.559 823.701 529.773 824.164 529.86 824.631 529.919 825.1 529.95L825.1 530 873.1 530C878.153 529.739 882.112 525.56 882.1 520.5Z"/><path d="M856.1 542 847.57 542 850.77 534 843.24 534 840.1 547 846.5 547 842.6 558 856.1 542Z"/><path d="M870.9 543.952C870.9 546.713 868.661 548.952 865.9 548.952 863.139 548.952 860.9 546.713 860.9 543.952 860.9 541.192 865.9 533.952 865.9 533.952 865.9 533.952 870.9 541.192 870.9 543.952Z"/><path d="M834.9 543.952C834.9 546.713 832.661 548.952 829.9 548.952 827.139 548.952 824.9 546.713 824.9 543.952 824.9 541.192 829.9 533.952 829.9 533.952 829.9 533.952 834.9 541.192 834.9 543.952Z"/></g></svg>