<svg width="96" height="96" xmlns="http://www.w3.org/2000/svg" xmlns:xlink="http://www.w3.org/1999/xlink" xml:space="preserve" overflow="hidden"><defs><clipPath id="clip0"><rect x="193" y="188" width="96" height="96"/></clipPath></defs><g clip-path="url(#clip0)" transform="translate(-193 -188)"><path d="M241 233.913C243.209 233.913 245 232.122 245 229.913 245 227.704 243.209 225.913 241 225.913 238.791 225.913 237 227.704 237 229.913 236.977 232.099 238.73 233.89 240.916 233.913 240.944 233.913 240.972 233.913 241 233.913ZM241 227.913C242.105 227.913 243 228.808 243 229.913 243 231.018 242.105 231.913 241 231.913 239.895 231.913 239 231.018 239 229.913 238.975 228.833 239.831 227.936 240.911 227.911 240.941 227.91 240.97 227.91 241 227.911Z"/><path d="M254 231.913 254 227.422 254.416 227.838 259.626 222.575 241 204.7 221.968 222.88 227.274 228.151 228 227.424 228 231.913 204 231.913 204 267.922 234 267.922 234 257C234 253.134 237.134 250 241 250 244.866 250 248 253.134 248 257L248 267.922 278 267.922 278 231.913ZM227.269 225.327 224.834 222.908 241 207.474 256.777 222.612 254.412 225 254 224.593 254 224.586 241 211.586 228 224.586 228 224.6ZM276 265.922 250 265.922 250 257C250 252.029 245.971 248 241 248 236.029 248 232 252.029 232 257L232 265.922 206 265.922 206 233.913 230 233.913 230 225.424 231.341 224.083 231.341 224.083 241 214.411 249.78 223.193 249.78 223.193 252 225.422 252 233.913 276 233.913Z"/><path d="M212 240 214 240 214 248 212 248Z"/><path d="M218 240 220 240 220 248 218 248Z"/><path d="M212 252 214 252 214 260 212 260Z"/><path d="M218 252 220 252 220 260 218 260Z"/><path d="M224 240 226 240 226 248 224 248Z"/><path d="M224 252 226 252 226 260 224 260Z"/><path d="M256 240 258 240 258 248 256 248Z"/><path d="M262 240 264 240 264 248 262 248Z"/><path d="M256 252 258 252 258 260 256 260Z"/><path d="M262 252 264 252 264 260 262 260Z"/><path d="M268 240 270 240 270 248 268 248Z"/><path d="M268 252 270 252 270 260 268 260Z"/><path d="M234 240 248 240 248 242 234 242Z"/></g></svg>