<svg width="96" height="96" xmlns="http://www.w3.org/2000/svg" xmlns:xlink="http://www.w3.org/1999/xlink" xml:space="preserve" overflow="hidden"><defs><clipPath id="clip0"><rect x="306" y="109" width="96" height="96"/></clipPath></defs><g clip-path="url(#clip0)" transform="translate(-306 -109)"><path d="M354 125C336.3 125 322 139.3 322 157 322 174.7 336.3 189 354 189 371.7 189 386 174.7 386 157 386 139.3 371.7 125 354 125ZM354 195C333 195 316 178 316 157 316 136 333 119 354 119 375 119 392 136 392 157 392 178 375 195 354 195Z"/><path d="M374 149 362 149 362 137C362 134.8 360.2 133 358 133L350 133C347.8 133 346 134.8 346 137L346 149 334 149C331.8 149 330 150.8 330 153L330 161C330 163.2 331.8 165 334 165L346 165 346 177C346 179.2 347.8 181 350 181L358 181C360.2 181 362 179.2 362 177L362 165 374 165C376.2 165 378 163.2 378 161L378 153C378 150.8 376.2 149 374 149Z"/></g></svg>