<svg width="96" height="96" xmlns="http://www.w3.org/2000/svg" xmlns:xlink="http://www.w3.org/1999/xlink" xml:space="preserve" overflow="hidden"><defs><clipPath id="clip0"><rect x="657" y="47" width="96" height="96"/></clipPath></defs><g clip-path="url(#clip0)" transform="translate(-657 -47)"><path d="M739.218 79.7772C737.866 75.5983 734.883 72.1431 730.946 70.1964 730.942 70.1947 730.94 70.1909 730.94 70.187 730.979 69.7964 731 69.4006 731 69 731.006 62.3778 725.642 57.0051 719.019 56.9998 716.948 56.9981 714.912 57.5329 713.109 58.552 709.559 52.9683 702.154 51.3204 696.57 54.8712 693.982 56.5171 692.123 59.0928 691.378 62.0678 685.621 58.265 677.871 59.849 674.068 65.6058 671.25 69.8724 671.316 75.4258 674.236 79.6239 666.294 81.9685 661.756 90.3076 664.101 98.2497 666.445 106.192 674.784 110.729 682.727 108.385 683.269 108.225 683.802 108.034 684.324 107.813L687.183 110.046C689.001 111.368 690.744 112.789 692.405 114.303L693.333 115.12C696.295 117.71 697.996 121.452 698 125.387L698 133C698 134.657 696.657 136 695 136L693.054 136C692.551 135.989 692.113 136.339 692.014 136.832 691.921 137.377 692.288 137.893 692.833 137.986 692.888 137.995 692.944 138 693 138L711.946 138C712.449 138.011 712.887 137.661 712.986 137.168 713.079 136.623 712.712 136.107 712.167 136.014 712.112 136.005 712.056 136 712 136L710 136C708.343 136 707 134.657 707 133L707 124.432C706.995 120.405 709.286 116.727 712.903 114.956 717.929 112.456 724.542 108.385 728.023 104.453L730.215 101.997C736.286 104.642 743.353 101.865 745.998 95.7935 748.643 89.7221 745.866 82.6558 739.795 80.0104 739.605 79.9276 739.412 79.8497 739.218 79.7768ZM726.528 103.124C723.231 106.848 716.648 110.861 712.012 113.165 707.714 115.273 704.993 119.645 705 124.432L705 133C705.004 134.085 705.364 135.139 706.026 136L698.974 136C699.636 135.139 699.996 134.085 700 133L700 125.387C699.996 120.876 698.046 116.586 694.651 113.616L693.727 112.803C692.028 111.253 690.243 109.798 688.382 108.446L686.284 106.807C686.995 106.375 687.668 105.886 688.298 105.343 691.578 107.297 694.594 109.664 697.272 112.386L699 114.222 699 111.7C699.024 108.35 698.425 105.025 697.235 101.894 697.821 101.963 698.41 101.999 699 102 699.465 102 699.924 101.972 700.378 101.932 701.074 104.04 701.553 106.214 701.807 108.419L702.362 113.052 703.754 108.598C704.767 105.394 706.079 102.292 707.672 99.3345 709.195 98.3004 710.523 97.0057 711.596 95.51 711.98 95.9429 712.388 96.3552 712.816 96.7451 709.612 101.205 707.429 107.335 706.047 111.698L705.104 114.672 707.6 112.8C710.404 110.915 713.364 109.274 716.447 107.895 719.808 106.344 722.713 103.954 724.882 100.955 725.827 100.883 726.764 100.731 727.683 100.501L727.691 100.503C727.924 100.683 728.165 100.852 728.411 101.014ZM692.011 100.475C692.049 100.391 692.07 100.342 692.07 100.342 692.07 100.342 692.56 100.568 692.638 100.603 693.33 100.915 694.044 101.177 694.774 101.385 694.823 101.4 694.846 101.404 694.846 101.404 695.98 103.867 696.672 106.509 696.89 109.212 694.67 107.236 692.283 105.456 689.755 103.893 690.659 102.861 691.418 101.712 692.011 100.475ZM702.379 101.622C703.143 101.453 703.893 101.226 704.622 100.942 704.094 102.057 703.594 103.201 703.138 104.354 702.924 103.406 702.662 102.502 702.379 101.622ZM722.362 100.924C720.499 103.123 718.18 104.889 715.565 106.1 713.57 107.063 711.049 108.28 708.849 109.587 710.155 105.488 712.013 101.585 714.372 97.9876 716.723 99.6658 719.483 100.68 722.362 100.924ZM736.364 100.91C733.712 101.277 731.023 100.558 728.909 98.9156L728.146 98.3279 728.138 98.3261 727.204 98.5591C722.051 99.8791 716.594 98.1871 713.093 94.1838L712.763 93.8117 713.221 93.1871C713.528 92.7887 713.504 92.228 713.165 91.8571 712.78 91.4606 712.147 91.4508 711.751 91.8352 711.711 91.8741 711.674 91.9163 711.641 91.9613L710.525 93.5061C710.525 93.5061 710.033 94.24 709.971 94.343 709.971 94.343 709.925 94.4079 709.901 94.4392 707.361 97.9235 703.312 99.9888 699 100 696.905 100.001 694.839 99.5089 692.97 98.5637 692.97 98.5637 692.374 98.3153 691.781 98.0137 691.474 97.8577 691.13 97.653 691.13 97.653L690.54 97.2978C690.116 97.0291 689.559 97.1036 689.22 97.4745 688.86 97.8937 688.908 98.5256 689.327 98.886 689.37 98.9226 689.415 98.9555 689.463 98.9845L690.277 99.4745 690.263 99.5032C687.224 106.003 679.49 108.808 672.99 105.768 666.49 102.729 663.685 94.995 666.725 88.495 668.299 85.1283 671.24 82.5971 674.804 81.5415L675.567 81.3154 676.755 82.6411C677.11 83.0364 677.711 83.086 678.125 82.754 678.559 82.3702 678.6 81.7074 678.216 81.2737 678.21 81.2675 678.205 81.2614 678.199 81.2553L676.449 79.3035 676.02 78.687C674.896 77.1128 674.21 75.2681 674.033 73.3418 673.575 67.5526 677.897 62.4884 683.686 62.0306 684.567 61.9609 685.453 62.0025 686.323 62.1544 687.79 62.4228 689.186 62.994 690.42 63.8318L690.98 64.2018 690.795 65.97C690.73 66.5187 691.119 67.0172 691.667 67.0883 691.707 67.0928 691.748 67.0951 691.789 67.0953 692.3 67.0946 692.728 66.7083 692.782 66.1998L693.056 63.585 693.258 62.7815C694.265 58.597 697.794 55.4979 702.074 55.0415 705.805 54.6908 709.418 56.4631 711.424 59.6286L711.437 59.6486 710.095 60.4816C709.641 60.7505 709.46 61.3175 709.676 61.7996 709.918 62.2959 710.517 62.502 711.013 62.2597 711.044 62.2449 711.073 62.2285 711.102 62.2106L713.522 60.6439C713.619 60.5834 713.998 60.3463 713.998 60.3463 718.758 57.571 724.867 59.1801 727.642 63.9404 728.537 65.4759 729.006 67.2226 729 69 729 69.3217 728.983 69.6571 728.95 69.9969L728.815 71.3658C728.814 71.37 728.817 71.3739 728.82 71.3758L730.053 71.9858C733.139 73.5209 735.57 76.1158 736.9 79.2958L736.234 79.1282C735.749 78.9946 735.238 79.2274 735.021 79.6809 734.799 80.1863 735.028 80.7765 735.533 80.9993 735.585 81.022 735.638 81.0404 735.693 81.0541L739.192 81.9341C744.203 84.2483 746.39 90.187 744.075 95.1986 742.647 98.2926 739.74 100.445 736.364 100.91Z"/></g></svg>