<svg width="96" height="96" xmlns="http://www.w3.org/2000/svg" xmlns:xlink="http://www.w3.org/1999/xlink" xml:space="preserve" overflow="hidden"><defs><clipPath id="clip0"><rect x="763" y="59" width="96" height="96"/></clipPath></defs><g clip-path="url(#clip0)" transform="translate(-763 -59)"><path d="M844.8 91.8C843.6 87.8 841 84.4 837.4 82.3 837.4 82 837.4 81.7 837.4 81.4 837.5 74.6 831.9 69 825 69 822.9 69 821 69.5 819.3 70.4 817 67.1 813.3 65 809 65 803.5 65 798.8 68.6 797.1 73.6 795.3 72.6 793.2 72 791 72 784.1 72 778.5 77.6 778.5 84.5 778.5 87.1 779.3 89.5 780.7 91.5 774.2 93.2 769.5 99 769.5 106 769.5 114.3 776.2 121 784.5 121 785.7 121 786.9 120.8 788.1 120.6 792.9 122.8 803.5 129.2 804 136.5L803.6 146C803.6 146.5 803.4 147 803 147.4L802.1 148.3C801.5 149 801.9 150 802.8 150L813.8 150C814.6 150 815 149.2 814.7 148.5 814.7 148.5 814.2 147.5 813.9 147.2 813.6 146.8 813.3 146.4 813.3 145.8L812.9 133.7C812.9 133.6 813 133.5 813 133.5 813.8 129.9 818.6 127.5 823.7 125 828.8 122.5 834.8 119.5 836.7 114.3 837.9 114.7 839.2 115 840.6 115 847.2 115 852.6 109.6 852.6 103 852.5 97.9 849.3 93.5 844.8 91.8ZM808.8 122.3C808.5 119.8 807.9 116.8 806.7 113.9 809.2 113.6 811.5 112.8 813.5 111.6 811.4 115.2 809.8 119.1 808.8 122.3ZM793.7 117.8C795.5 116.4 797 114.5 798.1 112.4 799 112.8 799.9 113.2 800.9 113.4 803.5 117.7 804 122.6 804 125.7 800.8 122.3 796.7 119.6 793.7 117.8ZM821.4 120.5C818.5 121.9 815.5 123.4 813.1 125.2 814.4 121.1 816.7 114.9 820.3 110.4 822.8 112 825.8 112.9 829 112.9 830 112.9 830.9 112.8 831.8 112.6 830.7 115.7 826.8 117.8 821.4 120.5Z"/></g></svg>