<svg width="96" height="96" xmlns="http://www.w3.org/2000/svg" xmlns:xlink="http://www.w3.org/1999/xlink" xml:space="preserve" overflow="hidden"><defs><clipPath id="clip0"><rect x="567" y="207" width="96" height="96"/></clipPath></defs><g clip-path="url(#clip0)" transform="translate(-567 -207)"><path d="M632 236 626 236 626 230 632 230 632 236ZM632 252 626 252 626 246 632 246 632 252ZM632 268 626 268 626 262 632 262 632 268ZM632 284 626 284 626 278 632 278 632 284ZM618 236 612 236 612 230 618 230 618 236ZM618 252 612 252 612 246 618 246 618 252ZM618 268 612 268 612 262 618 262 618 268ZM618 290 612 290 612 278 618 278 618 290ZM604 236 598 236 598 230 604 230 604 236ZM604 252 598 252 598 246 604 246 604 252ZM604 268 598 268 598 262 604 262 604 268ZM604 284 598 284 598 278 604 278 604 284ZM639 290 639 223 636 223 636 217 633 217 633 213 597 213 597 217 594 217 594 223 591 223 591 290 587 290 587 297 643 297 643 290 639 290Z"/></g></svg>