<svg width="96" height="96" xmlns="http://www.w3.org/2000/svg" xmlns:xlink="http://www.w3.org/1999/xlink" xml:space="preserve" overflow="hidden"><defs><clipPath id="clip0"><rect x="471" y="312" width="96" height="96"/></clipPath></defs><g clip-path="url(#clip0)" transform="translate(-471 -312)"><path d="M551.386 342.694 550.561 344.517 557 347.736 557 389.264 540 380.764 540 364 538 364 538 380.764 520 389.764 520 348.236 527.38 344.546 526.554 342.723 519 346.5 499 336.5 479 346.5 479 392.5 499 382.5 519 392.5 539 382.5 559 392.5 559 346.5ZM498 380.764 481 389.264 481 347.736 498 339.236ZM518 389.764 500 380.764 500 339.236 518 348.236Z"/><path d="M538.963 329.513C541.72 329.51 544.297 330.883 545.832 333.173 547.366 335.441 547.698 338.315 546.719 340.873L542.082 351.123 538.963 357.67 535.863 351.164 531.208 340.877C530.229 338.312 530.565 335.431 532.108 333.16 533.643 330.876 536.216 329.508 538.968 329.513M538.968 327.513C535.551 327.509 532.356 329.208 530.449 332.044 528.533 334.872 528.128 338.46 529.365 341.644L534.044 351.986 538.082 360.456C538.338 360.945 538.942 361.134 539.432 360.878 539.612 360.784 539.76 360.637 539.854 360.456L543.893 351.986 548.571 341.644C549.808 338.46 549.404 334.872 547.488 332.044 545.58 329.209 542.385 327.51 538.968 327.513Z"/><path d="M538.963 335.423C540.306 335.423 541.395 336.512 541.395 337.855 541.395 339.198 540.306 340.287 538.963 340.287 537.62 340.287 536.531 339.198 536.531 337.855 536.517 336.526 537.582 335.437 538.911 335.423 538.928 335.423 538.946 335.423 538.963 335.423M538.963 333.423C536.515 333.426 534.533 335.412 534.536 337.86 534.539 340.308 536.525 342.29 538.973 342.287 541.419 342.284 543.4 340.301 543.4 337.855 543.411 335.418 541.443 333.434 539.006 333.423 538.993 333.423 538.981 333.423 538.968 333.423Z"/></g></svg>