<svg width="96" height="96" xmlns="http://www.w3.org/2000/svg" xmlns:xlink="http://www.w3.org/1999/xlink" xml:space="preserve" overflow="hidden"><defs><clipPath id="clip0"><rect x="226" y="528" width="96" height="96"/></clipPath></defs><g clip-path="url(#clip0)" transform="translate(-226 -528)"><path d="M304.532 549.9C293.914 549.042 284.02 544.18 276.853 536.3 275.5 534.731 273.132 534.556 271.563 535.908 271.423 536.029 271.292 536.16 271.171 536.3 264.005 544.18 254.108 549.038 243.491 549.887 241.516 550.079 240.014 551.746 240.03 553.73L240.03 563.414C240.03 584.476 253.385 603.742 271.921 615.663 273.193 616.487 274.83 616.487 276.102 615.663 294.639 603.746 307.993 584.49 307.993 563.428L307.993 553.745C308.013 551.759 306.509 550.088 304.532 549.9ZM305.993 563.427C305.993 582.612 294.415 601.512 275.021 613.984 274.408 614.384 273.616 614.384 273.003 613.984 253.609 601.513 242.03 582.609 242.03 563.418L242.03 553.734C242.012 552.791 242.715 551.99 243.652 551.885 254.778 551.004 265.149 545.914 272.652 537.651 273.262 536.899 274.367 536.784 275.119 537.394 275.214 537.471 275.299 537.557 275.376 537.651 282.88 545.913 293.25 551.006 304.376 551.895 305.314 552 306.017 552.802 305.999 553.745Z"/></g></svg>