<svg width="96" height="96" xmlns="http://www.w3.org/2000/svg" xmlns:xlink="http://www.w3.org/1999/xlink" xml:space="preserve" overflow="hidden"><defs><clipPath id="clip0"><rect x="885" y="302" width="96" height="96"/></clipPath></defs><g clip-path="url(#clip0)" transform="translate(-885 -302)"><path d="M964 377 964 375 961 375 961 341 964 341 964 339 967 339 967 333 964 333 933 314 902 333 899 333 899 339 902 339 902 341 905 341 905 375 902 375 902 377 895 382 895 386 971 386 971 382 964 377ZM921 375 913 375 913 341 921 341 921 375ZM937 375 929 375 929 341 937 341 937 375ZM953 375 945 375 945 341 953 341 953 375Z"/></g></svg>