<svg width="96" height="96" xmlns="http://www.w3.org/2000/svg" xmlns:xlink="http://www.w3.org/1999/xlink" xml:space="preserve" overflow="hidden"><defs><clipPath id="clip0"><rect x="226" y="413" width="96" height="96"/></clipPath></defs><g clip-path="url(#clip0)" transform="translate(-226 -413)"><path d="M301.628 471.226C299.119 469.243 296.341 467.627 293.377 466.426L293.377 466.426C292.429 466.021 291.466 465.635 290.487 465.268L284.242 462.768C283.491 462.462 283 461.731 283 460.92L283 457.973C286.773 455.149 288.996 450.713 289 446L289 439 293 439C293.552 439 294 438.552 294 438 294 437.448 293.552 437 293 437L290.482 437 290.482 435.317 290.482 435.254C290.143 429.561 286.866 424.455 281.832 421.774L281.262 421.468C280.703 419.423 278.847 418.004 276.727 418L271.291 418C269.158 418.003 267.294 419.439 266.746 421.5L266.229 421.777C261.195 424.457 257.918 429.564 257.579 435.257L257.579 435.32 257.579 437 255 437C254.448 437 254 437.448 254 438 254 438.552 254.448 439 255 439L259 439 259 446C259.004 450.709 261.224 455.142 264.993 457.966L264.993 460.92C264.995 461.731 264.505 462.462 263.755 462.77L258.37 464.96C254.05 466.35 249.998 468.464 246.387 471.213 244.292 472.848 243.047 475.342 243 478L243 495.033 243.445 495.333C248.125 498.447 261.277 500 274.322 500 287.422 500 300.415 498.43 304.595 495.294L305 495 305 477.979C304.949 475.335 303.711 472.855 301.628 471.226ZM259.575 435.38C259.89 430.383 262.764 425.904 267.175 423.536L268.575 429.264C268.673 429.669 269.036 429.953 269.453 429.952L269.7 429.952C269.717 429.949 269.734 429.945 269.751 429.94 270.233 429.809 270.518 429.312 270.388 428.83L268.668 422.053C268.97 420.85 270.05 420.004 271.291 420L276.72 420C277.961 420.004 279.042 420.85 279.344 422.054L277.625 428.83C277.62 428.847 277.616 428.864 277.613 428.881 277.508 429.367 277.818 429.846 278.304 429.95 278.307 429.951 278.31 429.951 278.313 429.952L278.557 429.952C278.974 429.953 279.337 429.669 279.435 429.264L280.883 423.536C285.294 425.904 288.168 430.383 288.483 435.38L288.483 437 259.575 437ZM295.005 491.08 295.005 496.512C289.054 497.487 283.035 497.994 277.005 498.029L277.005 491 294.993 491ZM289.772 467.14 291.424 467.802 294.685 489 277.005 489 277.005 483.215 285.082 465.262 286.1 465.669ZM261 446 261 439 287 439 287 446C287 453.18 281.18 459 274 459 266.82 459 261 453.18 261 446ZM267 460.92 267 459.253C271.378 461.58 276.626 461.58 281.005 459.253L281.005 460.92C281.003 462.441 281.867 463.83 283.233 464.5L282.711 465.661C279.902 466.587 276.958 467.04 274 467 271.043 467.039 268.101 466.586 265.293 465.658L264.768 464.493C266.133 463.826 267 462.44 267 460.92ZM253.005 491.078 253.017 491 271.005 491 271.005 498.009C264.973 497.94 258.955 497.405 253.005 496.409ZM261.905 465.678 262.925 465.263 271.006 483.211 271.006 489 253.33 489 256.649 467.819 259.086 466.828ZM245 478.021C245.04 475.964 246.008 474.036 247.633 472.774 249.581 471.223 251.715 469.922 253.986 468.9L254.486 468.7 251.017 490.845 251.007 496C248.92 495.6 246.9 494.907 245.007 493.941ZM273 498.039 273 482.785 266.382 468.085C271.386 469.302 276.609 469.302 281.613 468.085L275 482.785 275 498.044C274.338 498.047 273.672 498.044 273.005 498.039ZM303 493.973C301.131 495.001 299.108 495.721 297.01 496.106L297.01 491 293.59 468.7C296.022 469.762 298.306 471.135 300.383 472.787 301.995 474.043 302.956 475.957 303 478Z"/></g></svg>