<svg width="96" height="96" xmlns="http://www.w3.org/2000/svg" xmlns:xlink="http://www.w3.org/1999/xlink" xml:space="preserve" overflow="hidden"><defs><clipPath id="clip0"><rect x="867" y="357" width="96" height="96"/></clipPath></defs><g clip-path="url(#clip0)" transform="translate(-867 -357)"><path d="M943.007 399.007 936.507 383.707C935.617 381.454 933.43 379.983 931.007 380.007L923.007 380.007 923.007 378C923 375.794 921.213 374.007 919.007 374L911.007 374C908.801 374.007 907.014 375.794 907.007 378L907.007 380 899.007 380C896.584 379.976 894.398 381.447 893.507 383.7L887.007 399 887.007 399 887.007 399.007C883.698 399.017 881.017 401.698 881.007 405.007L881.007 421.007C881.014 423.213 882.801 425 885.007 425.007L887.007 425.007 887.007 432.007C887.014 434.213 888.801 436 891.007 436.007L893.007 436.007C895.213 436 897 434.213 897.007 432.007L897.007 425.007 933.007 425.007 933.007 432.007C933.014 434.213 934.801 436 937.007 436.007L939.007 436.007C941.213 436 943 434.213 943.007 432.007L943.007 425.007 945.007 425.007C947.213 425 949 423.213 949.007 421.007L949.007 405.007C948.997 401.698 946.316 399.017 943.007 399.007ZM911.005 376 919.005 376C920.11 376 921.005 376.895 921.005 378L921.005 380 909.005 380 909.005 378C909.005 376.895 909.9 376 911.005 376ZM931.005 382C932.604 381.977 934.051 382.943 934.643 384.429L934.654 384.456 934.665 384.483 940.831 399 889.18 399 895.345 384.485 895.357 384.458 895.367 384.431C895.958 382.944 897.406 381.977 899.005 382ZM895.005 432.014C895.005 433.119 894.11 434.014 893.005 434.014L891 434.014C889.895 434.014 889 433.119 889 432.014L889 425.014 895 425.014ZM941.005 432.014C941.005 433.119 940.11 434.014 939.005 434.014L937.005 434.014C935.9 434.014 935.005 433.119 935.005 432.014L935.005 425.014 941.005 425.014ZM885.005 423.014C883.9 423.014 883.005 422.119 883.005 421.014L883.005 405.014C883.008 402.806 884.797 401.017 887.005 401.014L943.005 401.014C945.213 401.017 947.002 402.806 947.005 405.014L947.005 421.014C947.005 422.119 946.11 423.014 945.005 423.014Z"/><path d="M895 404.153 889 404.153C887.343 404.153 886 405.496 886 407.153L886 409.153C886 410.81 887.343 412.153 889 412.153L895 412.153C896.657 412.153 898 410.81 898 409.153L898 407.153C898 405.496 896.657 404.153 895 404.153ZM896 409.153C896 409.705 895.552 410.153 895 410.153L889 410.153C888.448 410.153 888 409.705 888 409.153L888 407.153C888 406.601 888.448 406.153 889 406.153L895 406.153C895.552 406.153 896 406.601 896 407.153Z"/><path d="M941 404.153 935 404.153C933.343 404.153 932 405.496 932 407.153L932 409.153C932 410.81 933.343 412.153 935 412.153L941 412.153C942.657 412.153 944 410.81 944 409.153L944 407.153C944 405.496 942.657 404.153 941 404.153ZM942 409.153C942 409.705 941.552 410.153 941 410.153L935 410.153C934.448 410.153 934 409.705 934 409.153L934 407.153C934 406.601 934.448 406.153 935 406.153L941 406.153C941.552 406.153 942 406.601 942 407.153Z"/></g></svg>