<svg width="96" height="96" xmlns="http://www.w3.org/2000/svg" xmlns:xlink="http://www.w3.org/1999/xlink" xml:space="preserve" overflow="hidden"><defs><clipPath id="clip0"><rect x="439" y="313" width="96" height="96"/></clipPath></defs><g clip-path="url(#clip0)" transform="translate(-439 -313)"><path d="M491.155 348.001C491.442 348.001 491.725 348.018 492.006 348.044L492.006 333.001 520.006 333.001 520.006 350.001 496.789 350.001C497.496 350.572 498.113 351.247 498.62 352.001L505.006 352.001 505.006 356.001 500.145 356.001 500.574 358.001 512.004 358.001 512.004 356.001 507.006 356.001 507.006 352.001 521.006 352.001C521.558 352.001 522.006 351.554 522.006 351.001 522.006 351.001 522.006 351.001 522.006 351.001L522.006 332.001C522.006 331.449 521.559 331.001 521.007 331.001 521.007 331.001 521.006 331.001 521.006 331.001L491.006 331.001C490.454 331.001 490.006 331.448 490.006 332 490.006 332.001 490.006 332.001 490.006 332.001L490.006 348.001Z"/><path d="M453.006 352.001 467.006 352.001 467.006 356.001 462.004 356.001 462.004 358.001 473.438 358.001 473.866 356.001 469.006 356.001 469.006 352.001 475.391 352.001C475.898 351.247 476.515 350.572 477.222 350.001L454.006 350.001 454.006 333.001 482.006 333.001 482.006 348.044C482.287 348.017 482.57 348.001 482.856 348.001L484.006 348.001 484.006 332.001C484.006 331.449 483.558 331.001 483.006 331.001 483.006 331.001 483.006 331.001 483.006 331.001L453.006 331.001C452.454 331.001 452.006 331.448 452.006 332 452.006 332.001 452.006 332.001 452.006 332.001L452.006 351.001C452.006 351.553 452.453 352.001 453.005 352.001 453.005 352.001 453.006 352.001 453.006 352.001Z"/><path d="M473.009 360.001 449.006 360.001C448.453 360.001 448.006 360.449 448.006 361.001 448.006 361.553 448.453 362.001 449.006 362.001L456.838 362.001 452.061 392.573 454.085 392.573 458.861 362.001 472.581 362.001Z"/><path d="M525.006 360.001 501.003 360.001 501.431 362.001 515.15 362.001 519.927 392.573 521.951 392.573 517.174 362.001 525.006 362.001C525.558 362.001 526.006 361.553 526.006 361.001 526.006 360.449 525.558 360.001 525.006 360.001Z"/><path d="M479.305 379.994 477.669 392.573 479.686 392.573 481.321 380.001 492.691 380.001 494.325 392.573 496.342 392.573 494.707 379.994C498.568 379.931 501.647 376.75 501.584 372.889 501.576 372.433 501.524 371.98 501.428 371.534L498 355.534C497.296 352.314 494.451 350.015 491.155 350.001L482.856 350.001C479.56 350.015 476.716 352.314 476.012 355.534L472.583 371.534C471.771 375.31 474.174 379.028 477.95 379.839 478.395 379.935 478.849 379.987 479.305 379.994ZM474.539 371.954 477.968 355.954C478.47 353.654 480.502 352.011 482.856 352.001L491.155 352.001C493.51 352.011 495.542 353.654 496.044 355.954L499.473 371.954C500.051 374.654 498.331 377.311 495.632 377.89 495.287 377.964 494.936 378.001 494.584 378.001L479.427 378.001C476.667 378.001 474.428 375.763 474.428 373.002 474.428 372.65 474.465 372.298 474.539 371.954Z"/></g></svg>