<svg width="96" height="96" xmlns="http://www.w3.org/2000/svg" xmlns:xlink="http://www.w3.org/1999/xlink" xml:space="preserve" overflow="hidden"><defs><clipPath id="clip0"><rect x="555" y="333" width="96" height="96"/></clipPath></defs><g clip-path="url(#clip0)" transform="translate(-555 -333)"><path d="M627.006 375 627.006 371 638.006 371C639.111 371 640.006 370.104 640.006 369L640.006 352C640.006 350.896 639.111 350 638.006 350L609.006 350C607.902 350 607.006 350.896 607.006 352L607.006 368.013C609.457 368.098 611.769 369.176 613.408 371L620.006 371 620.006 375ZM611.006 367 611.006 354 636.006 354 636.006 367Z"/><path d="M572.198 412 576.573 384 587.716 384 589.001 378 565.006 378C563.349 378 562.006 379.343 562.006 381 562.006 382.657 563.349 384 565.006 384L570.501 384 566.126 412Z"/><path d="M629.438 384 633.813 412 639.886 412 635.511 384 641.006 384C642.663 384 644.006 382.657 644.006 381 644.006 379.343 642.663 378 641.006 378L616.138 378 617.423 384Z"/><path d="M566.006 352 566.006 369C566.006 370.104 566.901 371 568.006 371L579.006 371 579.006 375 586.006 375 586.006 371 591.73 371C593.435 369.099 595.866 368.008 598.42 368L599.006 368 599.006 352C599.006 350.896 598.11 350 597.006 350L568.006 350C566.901 350 566.006 350.896 566.006 352ZM570.006 354 595.006 354 595.006 367 570.006 367Z"/><path d="M616.014 391.743 612.586 375.743C611.993 372.976 609.548 371 606.719 371L598.42 371C595.591 371 593.146 372.976 592.553 375.743L589.124 391.743C588.432 394.982 590.496 398.169 593.736 398.862 593.748 398.865 593.76 398.867 593.772 398.87L592.227 412 596.255 412 597.784 399 607.354 399 608.884 412 612.911 412 611.367 398.87C614.61 398.197 616.694 395.023 616.022 391.779 616.019 391.767 616.017 391.755 616.014 391.743Z"/></g></svg>